<svg id="visual" viewBox="0 0 960 540" width="960" height="540" xmlns="http://www.w3.org/2000/svg" xmlns:xlink="http://www.w3.org/1999/xlink" version="1.1"><rect x="0" y="0" width="960" height="540" fill="#001220"></rect><defs><linearGradient id="grad1_0" x1="43.8%" y1="0%" x2="100%" y2="100%"><stop offset="14.444444444444446%" stop-color="#fbae3c" stop-opacity="1"></stop><stop offset="85.55555555555554%" stop-color="#fbae3c" stop-opacity="1"></stop></linearGradient></defs><defs><linearGradient id="grad1_1" x1="43.8%" y1="0%" x2="100%" y2="100%"><stop offset="14.444444444444446%" stop-color="#fbae3c" stop-opacity="1"></stop><stop offset="85.55555555555554%" stop-color="#96446e" stop-opacity="1"></stop></linearGradient></defs><defs><linearGradient id="grad1_2" x1="43.8%" y1="0%" x2="100%" y2="100%"><stop offset="14.444444444444446%" stop-color="#001220" stop-opacity="1"></stop><stop offset="85.55555555555554%" stop-color="#96446e" stop-opacity="1"></stop></linearGradient></defs><defs><linearGradient id="grad2_0" x1="0%" y1="0%" x2="56.3%" y2="100%"><stop offset="14.444444444444446%" stop-color="#fbae3c" stop-opacity="1"></stop><stop offset="85.55555555555554%" stop-color="#fbae3c" stop-opacity="1"></stop></linearGradient></defs><defs><linearGradient id="grad2_1" x1="0%" y1="0%" x2="56.3%" y2="100%"><stop offset="14.444444444444446%" stop-color="#96446e" stop-opacity="1"></stop><stop offset="85.55555555555554%" stop-color="#fbae3c" stop-opacity="1"></stop></linearGradient></defs><defs><linearGradient id="grad2_2" x1="0%" y1="0%" x2="56.3%" y2="100%"><stop offset="14.444444444444446%" stop-color="#96446e" stop-opacity="1"></stop><stop offset="85.55555555555554%" stop-color="#001220" stop-opacity="1"></stop></linearGradient></defs><g transform="translate(960, 0)"><path d="M0 347C-33.3 335.4 -66.7 323.7 -102.6 315.8C-138.5 307.8 -177.1 303.4 -206.3 284C-235.5 264.5 -255.4 230 -270.2 196.3C-285 162.7 -294.8 129.9 -299.6 97.3C-304.4 64.8 -304.2 32.4 -304 0L0 0Z" fill="#3d3056"></path><path d="M0 231.3C-22.2 223.6 -44.4 215.8 -68.4 210.5C-92.4 205.2 -118.1 202.3 -137.5 189.3C-157 176.3 -170.3 153.3 -180.1 130.9C-190 108.4 -196.5 86.6 -199.7 64.9C-202.9 43.2 -202.8 21.6 -202.7 0L0 0Z" fill="#e1685e"></path><path d="M0 115.7C-11.1 111.8 -22.2 107.9 -34.2 105.3C-46.2 102.6 -59 101.1 -68.8 94.7C-78.5 88.2 -85.1 76.7 -90.1 65.4C-95 54.2 -98.3 43.3 -99.9 32.4C-101.5 21.6 -101.4 10.8 -101.3 0L0 0Z" fill="#fbae3c"></path></g><g transform="translate(0, 540)"><path d="M0 -321C33.6 -316.2 67.2 -311.4 97.6 -300.5C128.1 -289.7 155.5 -272.9 186.9 -257.3C218.3 -241.6 253.7 -227.2 278.3 -202.2C302.9 -177.2 316.8 -141.8 327.2 -106.3C337.5 -70.9 344.2 -35.4 351 0L0 0Z" fill="#3d3056"></path><path d="M0 -214C22.4 -210.8 44.8 -207.6 65.1 -200.4C85.4 -193.1 103.7 -181.9 124.6 -171.5C145.5 -161.1 169.1 -151.4 185.5 -134.8C202 -118.2 211.2 -94.5 218.1 -70.9C225 -47.2 229.5 -23.6 234 0L0 0Z" fill="#e1685e"></path><path d="M0 -107C11.2 -105.4 22.4 -103.8 32.5 -100.2C42.7 -96.6 51.8 -91 62.3 -85.8C72.8 -80.5 84.6 -75.7 92.8 -67.4C101 -59.1 105.6 -47.3 109.1 -35.4C112.5 -23.6 114.7 -11.8 117 0L0 0Z" fill="#fbae3c"></path></g></svg>